<svg width="24" height="24" viewBox="0 0 24 24" fill="none" xmlns="http://www.w3.org/2000/svg">
<path d="M10.5 18.0117V10.9688L3 7.21875V17.5312L9.375 20.7305L9.01172 22.2188L1.5 18.4688V5.53125L11.25 0.667969L21 5.53125V8.69531C20.4531 8.78125 19.9531 8.95703 19.5 9.22266V7.21875L12 10.9688V16.5117L10.5 18.0117ZM8.83594 3.53906L15.6797 7.45312L18.5742 6L11.25 2.33203L8.83594 3.53906ZM11.25 9.66797L14.0625 8.26172L7.21875 4.34766L3.92578 6L11.25 9.66797ZM21.6562 10.5C21.9844 10.5 22.2891 10.5586 22.5703 10.6758C22.8516 10.793 23.1016 10.9531 23.3203 11.1562C23.5391 11.3594 23.7031 11.6055 23.8125 11.8945C23.9219 12.1836 23.9844 12.4922 24 12.8203C24 13.125 23.9414 13.4219 23.8242 13.7109C23.707 14 23.5391 14.2539 23.3203 14.4727L14.918 22.875L10.5 23.9766L11.6016 19.5586L20.0039 11.168C20.2305 10.9414 20.4844 10.7734 20.7656 10.6641C21.0469 10.5547 21.3438 10.5 21.6562 10.5ZM22.2539 13.418C22.418 13.2539 22.5 13.0547 22.5 12.8203C22.5 12.5781 22.4219 12.3828 22.2656 12.2344C22.1094 12.0859 21.9062 12.0078 21.6562 12C21.5469 12 21.4414 12.0156 21.3398 12.0469C21.2383 12.0781 21.1484 12.1367 21.0703 12.2227L12.9609 20.332L12.5625 21.9141L14.1445 21.5156L22.2539 13.418Z" fill="#F7F7F7"/>
</svg>
