<svg width="24" height="24" viewBox="0 0 24 24" fill="none" xmlns="http://www.w3.org/2000/svg">
<path d="M7.8001 12C7.95923 12 8.11184 11.9368 8.22436 11.8242C8.33688 11.7117 8.4001 11.5591 8.4001 11.4C8.4001 11.2408 8.33688 11.0882 8.22436 10.9757C8.11184 10.8632 7.95923 10.8 7.8001 10.8C7.64097 10.8 7.48836 10.8632 7.37583 10.9757C7.26331 11.0882 7.2001 11.2408 7.2001 11.4C7.2001 11.5591 7.26331 11.7117 7.37583 11.8242C7.48836 11.9368 7.64097 12 7.8001 12ZM8.4001 16.2C8.4001 16.3591 8.33688 16.5117 8.22436 16.6242C8.11184 16.7368 7.95923 16.8 7.8001 16.8C7.64097 16.8 7.48836 16.7368 7.37583 16.6242C7.26331 16.5117 7.2001 16.3591 7.2001 16.2C7.2001 16.0408 7.26331 15.8882 7.37583 15.7757C7.48836 15.6632 7.64097 15.6 7.8001 15.6C7.95923 15.6 8.11184 15.6632 8.22436 15.7757C8.33688 15.8882 8.4001 16.0408 8.4001 16.2ZM3.6001 7.19998C3.6001 6.2452 3.97938 5.32952 4.65451 4.65439C5.32964 3.97926 6.24532 3.59998 7.2001 3.59998H16.8001C17.7549 3.59998 18.6706 3.97926 19.3457 4.65439C20.0208 5.32952 20.4001 6.2452 20.4001 7.19998V16.8C20.4001 17.7548 20.0208 18.6704 19.3457 19.3456C18.6706 20.0207 17.7549 20.4 16.8001 20.4H7.2001C6.24532 20.4 5.32964 20.0207 4.65451 19.3456C3.97938 18.6704 3.6001 17.7548 3.6001 16.8V7.19998ZM6.6001 5.99998C6.44097 5.99998 6.28836 6.06319 6.17583 6.17571C6.06331 6.28823 6.0001 6.44085 6.0001 6.59998C6.0001 6.75911 6.06331 6.91172 6.17583 7.02424C6.28836 7.13676 6.44097 7.19998 6.6001 7.19998H17.4001C17.5592 7.19998 17.7118 7.13676 17.8244 7.02424C17.9369 6.91172 18.0001 6.75911 18.0001 6.59998C18.0001 6.44085 17.9369 6.28823 17.8244 6.17571C17.7118 6.06319 17.5592 5.99998 17.4001 5.99998H6.6001ZM7.8001 13.2C8.27749 13.2 8.73532 13.0103 9.07289 12.6728C9.41046 12.3352 9.6001 11.8774 9.6001 11.4C9.6001 10.9226 9.41046 10.4647 9.07289 10.1272C8.73532 9.78962 8.27749 9.59998 7.8001 9.59998C7.32271 9.59998 6.86487 9.78962 6.52731 10.1272C6.18974 10.4647 6.0001 10.9226 6.0001 11.4C6.0001 11.8774 6.18974 12.3352 6.52731 12.6728C6.86487 13.0103 7.32271 13.2 7.8001 13.2ZM9.6001 16.2C9.6001 15.7226 9.41046 15.2647 9.07289 14.9272C8.73532 14.5896 8.27749 14.4 7.8001 14.4C7.32271 14.4 6.86487 14.5896 6.52731 14.9272C6.18974 15.2647 6.0001 15.7226 6.0001 16.2C6.0001 16.6774 6.18974 17.1352 6.52731 17.4728C6.86487 17.8103 7.32271 18 7.8001 18C8.27749 18 8.73532 17.8103 9.07289 17.4728C9.41046 17.1352 9.6001 16.6774 9.6001 16.2ZM10.8001 11.4C10.8001 11.5591 10.8633 11.7117 10.9758 11.8242C11.0884 11.9368 11.241 12 11.4001 12H17.4001C17.5592 12 17.7118 11.9368 17.8244 11.8242C17.9369 11.7117 18.0001 11.5591 18.0001 11.4C18.0001 11.2408 17.9369 11.0882 17.8244 10.9757C17.7118 10.8632 17.5592 10.8 17.4001 10.8H11.4001C11.241 10.8 11.0884 10.8632 10.9758 10.9757C10.8633 11.0882 10.8001 11.2408 10.8001 11.4ZM11.4001 15.6C11.241 15.6 11.0884 15.6632 10.9758 15.7757C10.8633 15.8882 10.8001 16.0408 10.8001 16.2C10.8001 16.3591 10.8633 16.5117 10.9758 16.6242C11.0884 16.7368 11.241 16.8 11.4001 16.8H17.4001C17.5592 16.8 17.7118 16.7368 17.8244 16.6242C17.9369 16.5117 18.0001 16.3591 18.0001 16.2C18.0001 16.0408 17.9369 15.8882 17.8244 15.7757C17.7118 15.6632 17.5592 15.6 17.4001 15.6H11.4001Z" fill="#F7F7F7"/>
</svg>
