<svg width="553" height="246" viewBox="0 0 553 246" fill="none" xmlns="http://www.w3.org/2000/svg">
<path d="M237.431 113.088C237.431 123.226 241.419 128.109 249.268 128.109H340.137V154.523H239.119C220.978 154.523 211.746 143.326 211.746 121.128V33.395C211.746 11.197 220.96 0 239.119 0H340.137V26.4336H249.268C241.419 26.4336 237.431 31.5125 237.431 41.4349V113.088Z" fill="#EE181E" fill-opacity="0.1"/>
<path d="M168.823 0.468994H158.261C91.8387 125.401 91.3358 125.401 91.3358 125.401C91.3358 125.401 92.8087 125.401 24.5538 0.468994H0V154.992H24.5538V65.102C24.5538 65.102 54.6757 124.225 71.2545 154.992H111.579C128.966 122.989 158.279 64.8863 158.279 64.8863V154.992H182.833V0.468994H168.841H168.823Z" fill="#EE181E" fill-opacity="0.1"/>
<path d="M538.064 0.468994H527.502C461.079 125.401 460.577 125.401 460.577 125.401C460.577 125.401 462.049 125.401 393.795 0.468994H369.241V154.992H393.795V65.102C393.795 65.102 423.917 124.225 440.495 154.992H480.82C498.207 122.989 527.52 64.8863 527.52 64.8863V154.992H552.074V0.468994H538.082H538.064Z" fill="#EE181E" fill-opacity="0.1"/>
<path d="M105.849 226.724C105.849 238.47 97.6942 245.216 81.8339 245.216H51.8916V176.72H80.0378C94.4611 176.72 102.526 183.367 102.526 194.427C102.526 201.859 99.0234 207.056 94.1019 209.683C101.179 211.84 105.849 217.605 105.849 226.704V226.724ZM60.8546 184.661V206.585H79.2295C88.372 206.585 93.563 202.859 93.563 195.623C93.563 188.387 88.372 184.661 79.2295 184.661H60.8546ZM96.7961 225.959C96.7961 218.037 91.4256 214.507 81.4747 214.507H60.8546V237.313H81.4747C91.4256 237.313 96.7961 233.881 96.7961 225.959Z" fill="#EE181E" fill-opacity="0.1"/>
<path d="M119.392 210.978C119.392 190.917 133.546 175.955 152.819 175.955C172.092 175.955 186.066 190.819 186.066 210.978C186.066 231.136 171.912 246 152.819 246C133.726 246 119.392 231.038 119.392 210.978ZM177.103 210.978C177.103 195.819 166.704 184.661 152.819 184.661C138.935 184.661 128.355 195.819 128.355 210.978C128.355 226.136 138.755 237.293 152.819 237.293C166.883 237.293 177.103 226.136 177.103 210.978Z" fill="#EE181E" fill-opacity="0.1"/>
<path d="M258.489 226.724C258.489 238.47 250.334 245.216 234.474 245.216H204.531V176.72H232.677C247.101 176.72 255.166 183.367 255.166 194.427C255.166 201.859 251.663 207.056 246.742 209.683C253.818 211.84 258.489 217.605 258.489 226.704V226.724ZM213.512 184.661V206.585H231.887C241.03 206.585 246.221 202.859 246.221 195.623C246.221 188.387 241.03 184.661 231.887 184.661H213.512ZM249.454 225.959C249.454 218.037 244.083 214.507 234.132 214.507H213.512V237.313H234.132C244.083 237.313 249.454 233.881 249.454 225.959Z" fill="#EE181E" fill-opacity="0.1"/>
<path d="M277.151 176.739H286.114V245.235H277.151V176.739Z" fill="#EE181E" fill-opacity="0.1"/>
<path d="M363.637 176.739V245.235H356.291L318.643 194.152V245.235H309.68V176.739H317.026L354.674 227.802V176.739H363.637Z" fill="#EE181E" fill-opacity="0.1"/>
<path d="M427.204 228.097H393.867L386.969 245.216H377.737L406.152 176.72H415.026L443.531 245.216H434.119L427.222 228.097H427.204ZM424.06 220.272L410.535 186.72L397.01 220.272H424.078H424.06Z" fill="#EE181E" fill-opacity="0.1"/>
<path d="M451.865 237.391L455.188 229.763C459.84 234.352 467.815 237.686 475.88 237.686C486.729 237.686 491.381 233.077 491.381 227.116C491.381 210.389 453.374 220.959 453.374 195.505C453.374 184.936 460.9 175.935 477.389 175.935C484.735 175.935 492.351 178.092 497.56 181.995L494.596 189.819C489.136 185.995 482.939 184.23 477.389 184.23C466.72 184.23 462.157 189.132 462.157 195.094C462.157 211.821 500.165 201.349 500.165 226.508C500.165 236.98 492.459 245.98 475.88 245.98C466.289 245.98 456.877 242.451 451.865 237.372V237.391Z" fill="#EE181E" fill-opacity="0.1"/>
</svg>
