<svg width="155" height="55" viewBox="0 0 155 55" fill="none" xmlns="http://www.w3.org/2000/svg">
<g clip-path="url(#clip0_483_335)">
<g clip-path="url(#clip1_483_335)">
<path d="M37.7012 3.3852C37.7012 3.3852 37.2867 0.650689 33.4832 0.395055C32.0191 0.298224 30.5589 0.631322 29.2459 1.2859C28.355 1.72745 27.3596 2.35879 26.767 3.16829C25.5005 4.89576 2.59798 42.4158 2.59798 42.4158C2.59798 42.4158 0.409602 45.7546 1.21524 48.5162C2.02087 51.2778 5.58812 54.3299 6.10714 54.6165H17.7036C17.7036 54.6165 11.1617 51.5412 12.5019 45.9095C12.6684 45.2123 12.9628 44.5577 13.3307 43.9419L37.7012 3.3852Z" fill="#BB1217"/>
<path d="M33.0107 44.213L48.1551 19.0137L42.3413 10.5275C35.7026 21.2486 22.5646 42.7722 22.5646 42.7722C22.5646 42.7722 20.442 46.0141 21.2244 48.6944C22.0068 51.3747 25.4695 54.3377 25.973 54.6166H37.2325C37.2325 54.6166 31.0431 51.7039 32.1354 46.3704C32.2903 45.6035 32.6079 44.8792 33.0107 44.213Z" fill="#BB1217"/>
<path d="M52.0826 44.062L57.9621 35.9863L52.1484 27.5L42.1322 42.7761C42.1322 42.7761 40.0097 46.018 40.7921 48.6982C41.5745 51.3785 45.0371 54.3416 45.5407 54.6204H56.8002C56.8002 54.6204 50.9206 52.0912 50.9245 47.4317C50.9245 46.2155 51.366 45.0419 52.0787 44.062H52.0826Z" fill="#BB1217"/>
<path d="M104.259 26.8881C104.259 28.3599 104.89 29.0648 106.133 29.0648H120.526V32.8993H104.526C101.652 32.8993 100.192 31.2726 100.192 28.0539V15.3264C100.192 12.1078 101.652 10.481 104.526 10.481H120.526V14.3155H106.133C104.89 14.3155 104.259 15.0514 104.259 16.4923V26.8881Z" fill="#BB1217"/>
<path d="M93.1813 10.481H91.508C80.9883 28.6039 80.907 28.6039 80.907 28.6039C80.907 28.6039 81.1394 28.6039 70.3292 10.481H66.4404V32.8993H70.3292V19.8581C70.3292 19.8581 75.101 28.4335 77.7232 32.8993H84.1101C86.864 28.2553 91.5042 19.8271 91.5042 19.8271V32.8993H95.3929V10.481H93.1774H93.1813Z" fill="#BB1217"/>
<path d="M151.667 10.481H149.994C139.474 28.6039 139.393 28.6039 139.393 28.6039C139.393 28.6039 139.625 28.6039 128.815 10.481H124.926V32.8993H128.815V19.8581C128.815 19.8581 133.587 28.4335 136.209 32.8993H142.596C145.35 28.2553 149.99 19.8271 149.99 19.8271V32.8993H153.879V10.481H151.663H151.667Z" fill="#BB1217"/>
<path d="M83.2077 43.3028C83.2077 45.0071 81.914 45.987 79.4042 45.987H74.6633V36.0521H79.1214C81.4066 36.0521 82.6848 37.0166 82.6848 38.6201C82.6848 39.7007 82.1309 40.4521 81.3524 40.8356C82.4757 41.1493 83.2116 41.9859 83.2116 43.3067L83.2077 43.3028ZM76.0809 37.2025V40.3824H78.9897C80.4383 40.3824 81.2595 39.844 81.2595 38.7944C81.2595 37.7447 80.4345 37.2063 78.9897 37.2063H76.0809V37.2025ZM81.7746 43.1905C81.7746 42.0402 80.9225 41.5289 79.3461 41.5289H76.0809V44.8366H79.3461C80.9225 44.8366 81.7746 44.3409 81.7746 43.1905Z" fill="#BB1217"/>
<path d="M85.3535 41.0176C85.3535 38.1088 87.5961 35.9359 90.6482 35.9359C93.7003 35.9359 95.9158 38.0933 95.9158 41.0176C95.9158 43.9419 93.6732 46.0993 90.6482 46.0993C87.6232 46.0993 85.3535 43.9264 85.3535 41.0176ZM94.4944 41.0176C94.4944 38.8176 92.8482 37.1986 90.6482 37.1986C88.4482 37.1986 86.775 38.8176 86.775 41.0176C86.775 43.2176 88.4211 44.8366 90.6482 44.8366C92.8753 44.8366 94.4944 43.2176 94.4944 41.0176Z" fill="#BB1217"/>
<path d="M107.384 43.3028C107.384 45.0071 106.091 45.987 103.581 45.987H98.8401V36.0521H103.298C105.583 36.0521 106.862 37.0166 106.862 38.6201C106.862 39.7007 106.308 40.4521 105.529 40.8356C106.652 41.1493 107.388 41.9859 107.388 43.3067L107.384 43.3028ZM100.262 37.2025V40.3824H103.17C104.619 40.3824 105.44 39.844 105.44 38.7944C105.44 37.7447 104.615 37.2063 103.17 37.2063H100.262V37.2025ZM105.951 43.1905C105.951 42.0402 105.099 41.5289 103.523 41.5289H100.258V44.8366H103.523C105.099 44.8366 105.951 44.3409 105.951 43.1905Z" fill="#BB1217"/>
<path d="M110.34 36.0521H111.757V45.987H110.34V36.0521Z" fill="#BB1217"/>
<path d="M124.039 36.0521V45.987H122.874L116.913 38.5775V45.987H115.495V36.0521H116.661L122.622 43.4616V36.0521H124.039Z" fill="#BB1217"/>
<path d="M134.106 43.5042H128.827L127.734 45.987H126.274L130.775 36.0521H132.181L136.693 45.987H135.202L134.11 43.5042H134.106ZM133.61 42.3655L131.468 37.4968L129.326 42.3655H133.614H133.61Z" fill="#BB1217"/>
<path d="M138.01 44.8521L138.537 43.7444C139.273 44.4106 140.539 44.8947 141.814 44.8947C143.533 44.8947 144.269 44.2285 144.269 43.3609C144.269 40.9324 138.25 42.4662 138.25 38.775C138.25 37.2412 139.443 35.9359 142.054 35.9359C143.216 35.9359 144.424 36.2496 145.249 36.8151L144.781 37.95C143.913 37.3961 142.937 37.1405 142.054 37.1405C140.365 37.1405 139.641 37.8493 139.641 38.7169C139.641 41.1454 145.66 39.6271 145.66 43.2718C145.66 44.7901 144.44 46.0954 141.814 46.0954C140.295 46.0954 138.804 45.5842 138.01 44.8482V44.8521Z" fill="#BB1217"/>
</g>
</g>
<defs>
<clipPath id="clip0_483_335">
<rect width="154.92" height="55" fill="white"/>
</clipPath>
<clipPath id="clip1_483_335">
<rect width="154.92" height="55" fill="white"/>
</clipPath>
</defs>
</svg>
