<svg width="155" height="55" viewBox="0 0 155 55" fill="none" xmlns="http://www.w3.org/2000/svg">
<path d="M37.7013 3.3852C37.7013 3.3852 37.2868 0.650689 33.4833 0.395055C32.0192 0.298224 30.559 0.631322 29.246 1.2859C28.3551 1.72745 27.3597 2.35879 26.7671 3.16829C25.5006 4.89576 2.5981 42.4158 2.5981 42.4158C2.5981 42.4158 0.409724 45.7546 1.21536 48.5162C2.02099 51.2778 5.58824 54.3299 6.10726 54.6165H17.7037C17.7037 54.6165 11.1618 51.5412 12.502 45.9095C12.6685 45.2123 12.9629 44.5577 13.3309 43.9419L37.7013 3.3852Z" fill="white"/>
<path d="M33.0107 44.213L48.1551 19.0137L42.3413 10.5275C35.7026 21.2486 22.5646 42.7722 22.5646 42.7722C22.5646 42.7722 20.442 46.0141 21.2244 48.6944C22.0068 51.3747 25.4695 54.3377 25.973 54.6166H37.2325C37.2325 54.6166 31.0431 51.7039 32.1354 46.3704C32.2903 45.6035 32.6079 44.8792 33.0107 44.213Z" fill="white"/>
<path d="M52.0826 44.062L57.9621 35.9863L52.1484 27.5L42.1322 42.7761C42.1322 42.7761 40.0097 46.018 40.7921 48.6982C41.5745 51.3785 45.0371 54.3416 45.5407 54.6204H56.8002C56.8002 54.6204 50.9206 52.0912 50.9245 47.4317C50.9245 46.2155 51.366 45.0419 52.0787 44.062H52.0826Z" fill="white"/>
<path d="M104.259 26.8881C104.259 28.3599 104.89 29.0648 106.134 29.0648H120.527V32.8993H104.526C101.652 32.8993 100.192 31.2726 100.192 28.0539V15.3264C100.192 12.1078 101.652 10.481 104.526 10.481H120.527V14.3155H106.134C104.89 14.3155 104.259 15.0514 104.259 16.4923V26.8881Z" fill="white"/>
<path d="M93.1815 10.481H91.5083C80.9886 28.6039 80.9072 28.6039 80.9072 28.6039C80.9072 28.6039 81.1396 28.6039 70.3294 10.481H66.4407V32.8993H70.3294V19.8581C70.3294 19.8581 75.1012 28.4335 77.7234 32.8993H84.1104C86.8643 28.2553 91.5044 19.8271 91.5044 19.8271V32.8993H95.3931V10.481H93.1776H93.1815Z" fill="white"/>
<path d="M151.667 10.481H149.994C139.474 28.6039 139.393 28.6039 139.393 28.6039C139.393 28.6039 139.625 28.6039 128.815 10.481H124.927V32.8993H128.815V19.8581C128.815 19.8581 133.587 28.4335 136.209 32.8993H142.596C145.35 28.2553 149.99 19.8271 149.99 19.8271V32.8993H153.879V10.481H151.663H151.667Z" fill="white"/>
<path d="M83.2079 43.3028C83.2079 45.0071 81.9143 45.987 79.4044 45.987H74.6636V36.0521H79.1217C81.4069 36.0521 82.6851 37.0166 82.6851 38.6201C82.6851 39.7007 82.1312 40.4521 81.3527 40.8356C82.4759 41.1493 83.2118 41.9859 83.2118 43.3067L83.2079 43.3028ZM76.0812 37.2025V40.3824H78.99C80.4386 40.3824 81.2597 39.844 81.2597 38.7944C81.2597 37.7447 80.4347 37.2063 78.99 37.2063H76.0812V37.2025ZM81.7748 43.1905C81.7748 42.0402 80.9227 41.5289 79.3463 41.5289H76.0812V44.8366H79.3463C80.9227 44.8366 81.7748 44.3409 81.7748 43.1905Z" fill="white"/>
<path d="M85.3536 41.0176C85.3536 38.1088 87.5962 35.9359 90.6484 35.9359C93.7005 35.9359 95.916 38.0933 95.916 41.0176C95.916 43.9419 93.6734 46.0993 90.6484 46.0993C87.6234 46.0993 85.3536 43.9264 85.3536 41.0176ZM94.4945 41.0176C94.4945 38.8176 92.8484 37.1986 90.6484 37.1986C88.4484 37.1986 86.7751 38.8176 86.7751 41.0176C86.7751 43.2176 88.4212 44.8366 90.6484 44.8366C92.8755 44.8366 94.4945 43.2176 94.4945 41.0176Z" fill="white"/>
<path d="M107.385 43.3028C107.385 45.0071 106.091 45.987 103.581 45.987H98.8403V36.0521H103.298C105.584 36.0521 106.862 37.0166 106.862 38.6201C106.862 39.7007 106.308 40.4521 105.529 40.8356C106.653 41.1493 107.389 41.9859 107.389 43.3067L107.385 43.3028ZM100.262 37.2025V40.3824H103.171C104.619 40.3824 105.44 39.844 105.44 38.7944C105.44 37.7447 104.615 37.2063 103.171 37.2063H100.262V37.2025ZM105.952 43.1905C105.952 42.0402 105.099 41.5289 103.523 41.5289H100.258V44.8366H103.523C105.099 44.8366 105.952 44.3409 105.952 43.1905Z" fill="white"/>
<path d="M110.34 36.0521H111.758V45.987H110.34V36.0521Z" fill="white"/>
<path d="M124.04 36.0521V45.987H122.874L116.913 38.5775V45.987H115.495V36.0521H116.661L122.622 43.4616V36.0521H124.04Z" fill="white"/>
<path d="M134.106 43.5042H128.827L127.735 45.987H126.274L130.775 36.0521H132.181L136.693 45.987H135.202L134.11 43.5042H134.106ZM133.61 42.3655L131.468 37.4968L129.327 42.3655H133.614H133.61Z" fill="white"/>
<path d="M138.01 44.8521L138.537 43.7444C139.273 44.4106 140.54 44.8947 141.814 44.8947C143.534 44.8947 144.27 44.2285 144.27 43.3609C144.27 40.9324 138.251 42.4662 138.251 38.775C138.251 37.2412 139.443 35.9359 142.054 35.9359C143.216 35.9359 144.424 36.2496 145.249 36.8151L144.781 37.95C143.913 37.3961 142.937 37.1405 142.054 37.1405C140.365 37.1405 139.641 37.8493 139.641 38.7169C139.641 41.1454 145.66 39.6271 145.66 43.2718C145.66 44.7901 144.44 46.0954 141.814 46.0954C140.296 46.0954 138.804 45.5842 138.01 44.8482V44.8521Z" fill="white"/>
</svg>
